# xmcd CD database file
#
# Track frame offsets:
#	150
#	15705
#	42003
#	62290
#	83270
#	105626
#	126501
#	144035
#	163113
#	182802
#	198346
#	214278
#	236303
#
# Disc length: 3416 seconds
#
# Revision: 4
# Processed by: cddbd v1.5.2PL0 Copyright (c) Steve Scherf et al.
# Submitted via: CDex 2.21
#
DISCID=a10d560d
DTITLE=Faith Hill - Deep Tracks
DYEAR=2016
DGENRE=Country
TTITLE0=Better Days
TTITLE1=Somebody Stand by Me
TTITLE2=If I Should Fall Behind
TTITLE3=Free
TTITLE4=If This Is the End
TTITLE5=Back to You
TTITLE6=Unsaveable
TTITLE7=If You Ask
TTITLE8=You Stay with Me
TTITLE9=Wish for You
TTITLE10=Boy
TTITLE11=Why
TTITLE12=Come to Jesus
EXTD=YEAR: 2016
EXTT0=
EXTT1=
EXTT2=
EXTT3=
EXTT4=
EXTT5=
EXTT6=
EXTT7=
EXTT8=
EXTT9=
EXTT10=
EXTT11=
EXTT12=
PLAYORDER=
